<svg width="512" height="512" viewBox="0 0 512 512" fill="none" xmlns="http://www.w3.org/2000/svg">
<g clip-path="url(#clip0_1_2)">
<path fill-rule="evenodd" clip-rule="evenodd" d="M-0.426666 -0.426666C170.24 -0.426666 340.907 -0.426666 511.573 -0.426666C511.573 170.24 511.573 340.907 511.573 511.573C340.907 511.573 170.24 511.573 -0.426666 511.573C-0.426666 340.907 -0.426666 170.24 -0.426666 -0.426666Z" fill="#FEFEFE"/>
<path fill-rule="evenodd" clip-rule="evenodd" d="M241.067 37.12C328.239 35.2587 395.51 70.5298 442.88 142.933C478.997 206.013 483.832 271.436 457.387 339.2C426.679 408.298 374.484 451.675 300.8 469.333C223.894 483.325 157.192 463.555 100.693 410.027C43.65 348.829 25.1611 277.433 45.2267 195.84C65.1004 130.742 105.918 83.9509 167.68 55.4667C191.25 45.3076 215.712 39.192 241.067 37.12Z" fill="#02579B"/>
<path fill-rule="evenodd" clip-rule="evenodd" d="M154.027 213.76C153.975 213.297 153.691 213.012 153.173 212.907C152.32 237.362 152.036 261.825 152.32 286.293C148.297 299.818 139.194 305.649 125.013 303.787C116.622 301.084 111.076 295.537 108.373 287.147C107.804 242.204 107.804 197.263 108.373 152.32C115.275 135.856 126.795 131.447 142.933 139.093C159.811 155.971 176.736 172.896 193.707 189.867C209.802 174.056 225.589 157.984 241.067 141.653C253.494 132.319 265.014 133.314 275.627 144.64C276.794 146.932 277.932 149.208 279.04 151.467C279.609 196.693 279.609 241.92 279.04 287.147C273.058 302.131 262.391 307.11 247.04 302.08C239.502 297.942 235.377 291.542 234.667 282.88C234.382 259.84 234.097 236.8 233.813 213.76C224.231 223.913 214.133 233.442 203.52 242.347C195.071 245.742 187.106 244.889 179.627 239.787C170.921 231.223 162.388 222.548 154.027 213.76Z" fill="#FAFBFD"/>
<path fill-rule="evenodd" clip-rule="evenodd" d="M319.573 135.253C337.78 135.111 355.984 135.253 374.187 135.68C391.374 137.503 403.179 146.463 409.6 162.56C415.13 183.808 409.015 200.732 391.253 213.333C386.958 215.713 382.406 217.42 377.6 218.453C367.69 219.637 357.735 220.064 347.733 219.733C347.876 241.922 347.733 264.108 347.307 286.293C342.776 299.581 333.532 305.412 319.573 303.787C311.183 301.084 305.636 295.537 302.933 287.147C302.364 242.204 302.364 197.263 302.933 152.32C305.793 143.915 311.34 138.226 319.573 135.253Z" fill="#F6F9FB"/>
<path fill-rule="evenodd" clip-rule="evenodd" d="M321.28 139.52C339.203 139.377 357.123 139.52 375.04 139.947C389.28 141.959 399.379 149.496 405.333 162.56C411.015 181.579 406.036 197.081 390.4 209.067C385.129 212.246 379.44 214.237 373.333 215.04C351.148 215.467 328.962 215.609 306.773 215.467C306.773 208.071 306.773 200.676 306.773 193.28C315.027 193.422 323.276 193.28 331.52 192.853C344.885 189.993 349.009 182.171 343.893 169.387C342.387 166.85 340.254 165.001 337.493 163.84C327.318 162.613 317.078 162.186 306.773 162.56C305.829 151.054 310.664 143.374 321.28 139.52Z" fill="#02579B"/>
<path fill-rule="evenodd" clip-rule="evenodd" d="M147.2 153.173C147.482 168.682 147.197 184.042 146.347 199.253C136.99 190.323 127.746 181.222 118.613 171.947C109.289 158.983 111.706 148.885 125.867 141.653C135.978 140.163 143.089 144.003 147.2 153.173Z" fill="#0B599C"/>
<path fill-rule="evenodd" clip-rule="evenodd" d="M241.067 199.253C240.216 184.327 239.932 169.251 240.213 154.027C245.437 141.426 254.254 138.156 266.667 144.213C276.052 152.746 276.764 161.99 268.8 171.947C259.668 181.222 250.423 190.323 241.067 199.253Z" fill="#0A599C"/>
<path fill-rule="evenodd" clip-rule="evenodd" d="M154.027 157.44C166.24 169.085 178.186 181.031 189.867 193.28C185.329 198.246 180.635 203.081 175.787 207.787C173.589 210.54 172.309 213.669 171.947 217.173C171.377 219.164 170.809 221.156 170.24 223.147C163.933 217.695 158.245 211.721 153.173 205.227C152.892 189.149 153.176 173.221 154.027 157.44Z" fill="#0D599C"/>
<path fill-rule="evenodd" clip-rule="evenodd" d="M233.387 157.44C234.237 173.505 234.522 189.718 234.24 206.08C228.836 212.053 223.147 217.743 217.173 223.147C216.604 221.156 216.036 219.164 215.467 217.173C215.104 213.669 213.824 210.54 211.627 207.787C206.778 203.081 202.085 198.246 197.547 193.28C209.25 181.008 221.197 169.062 233.387 157.44Z" fill="#0C599C"/>
<path fill-rule="evenodd" clip-rule="evenodd" d="M147.2 153.173C148.192 168.956 148.334 184.885 147.627 200.96C147.015 200.496 146.588 199.927 146.347 199.253C147.197 184.042 147.482 168.682 147.2 153.173Z" fill="#3073AB"/>
<path fill-rule="evenodd" clip-rule="evenodd" d="M154.027 157.44C153.176 173.221 152.892 189.149 153.173 205.227C152.182 188.875 152.039 172.377 152.747 155.733C153.358 156.198 153.785 156.767 154.027 157.44Z" fill="#DAE6F1"/>
<path fill-rule="evenodd" clip-rule="evenodd" d="M234.24 206.08C234.522 189.718 234.237 173.505 233.387 157.44C233.628 156.767 234.055 156.198 234.667 155.733C235.374 172.662 235.232 189.443 234.24 206.08Z" fill="#AAC6DD"/>
<path fill-rule="evenodd" clip-rule="evenodd" d="M240.213 154.027C239.932 169.251 240.216 184.327 241.067 199.253C240.825 199.927 240.399 200.496 239.787 200.96C239.079 185.169 239.222 169.525 240.213 154.027Z" fill="#5B92BE"/>
<path fill-rule="evenodd" clip-rule="evenodd" d="M306.773 166.827C316.448 166.684 326.12 166.827 335.787 167.253C340.199 169.253 342.191 172.666 341.76 177.493C341.926 183.025 339.366 186.724 334.08 188.587C324.983 189.013 315.88 189.156 306.773 189.013C306.773 181.617 306.773 174.223 306.773 166.827Z" fill="#0E5A9D"/>
<path fill-rule="evenodd" clip-rule="evenodd" d="M113.92 173.653C113.068 209.632 112.783 245.757 113.067 282.027C111.931 245.758 111.931 209.349 113.067 172.8C113.585 172.906 113.869 173.19 113.92 173.653Z" fill="#D2E1ED"/>
<path fill-rule="evenodd" clip-rule="evenodd" d="M273.493 173.653C273.545 173.19 273.829 172.906 274.347 172.8C275.482 209.918 275.482 246.896 274.347 283.733C274.63 246.895 274.346 210.202 273.493 173.653Z" fill="#A1C1DA"/>
<path fill-rule="evenodd" clip-rule="evenodd" d="M329.813 172.8C336.742 172.774 338.448 175.76 334.933 181.76C328.969 183.471 326.55 181.338 327.68 175.36C328.276 174.344 328.986 173.49 329.813 172.8Z" fill="#F9FBFC"/>
<path fill-rule="evenodd" clip-rule="evenodd" d="M113.92 173.653C124.983 185.143 136.218 196.522 147.627 207.787C148.196 233.671 148.196 259.556 147.627 285.44C144.039 295.84 136.786 300.249 125.867 298.667C118.214 295.739 113.947 290.192 113.067 282.027C112.783 245.757 113.068 209.632 113.92 173.653Z" fill="#03579B"/>
<path fill-rule="evenodd" clip-rule="evenodd" d="M273.493 173.653C274.346 210.202 274.63 246.895 274.347 283.733C271.176 296.416 263.211 301.11 250.453 297.813C245.084 295.286 241.528 291.162 239.787 285.44C239.217 259.556 239.217 233.671 239.787 207.787C251.195 196.522 262.43 185.143 273.493 173.653Z" fill="#05589B"/>
<path fill-rule="evenodd" clip-rule="evenodd" d="M192.427 197.547C193.324 197.42 194.178 197.561 194.987 197.973C198.543 201.529 202.097 205.084 205.653 208.64C212.244 216.182 212.813 224.147 207.36 232.533C200.022 239.293 191.916 240.288 183.04 235.52C175.613 228.688 174.333 220.867 179.2 212.053C183.47 207.073 187.879 202.237 192.427 197.547Z" fill="#0D599C"/>
<path fill-rule="evenodd" clip-rule="evenodd" d="M154.027 213.76C153.457 237.937 152.889 262.116 152.32 286.293C152.036 261.825 152.32 237.362 153.173 212.907C153.691 213.012 153.975 213.297 154.027 213.76Z" fill="#D8E5F0"/>
<path fill-rule="evenodd" clip-rule="evenodd" d="M306.773 219.733C319.004 219.733 331.236 219.733 343.467 219.733C343.609 241.638 343.467 263.539 343.04 285.44C337.5 299.088 327.971 302.928 314.453 296.96C310.836 293.845 308.419 290.005 307.2 285.44C306.773 263.539 306.631 241.638 306.773 219.733Z" fill="#03579B"/>
<path fill-rule="evenodd" clip-rule="evenodd" d="M171.947 217.173C172.087 219.749 171.945 222.309 171.52 224.853C170.908 224.389 170.481 223.82 170.24 223.147C170.809 221.156 171.377 219.164 171.947 217.173Z" fill="#97B9D5"/>
<path fill-rule="evenodd" clip-rule="evenodd" d="M215.467 217.173C216.036 219.164 216.604 221.156 217.173 223.147C216.932 223.82 216.505 224.389 215.893 224.853C215.468 222.309 215.326 219.749 215.467 217.173Z" fill="#94B7D4"/>
<path fill-rule="evenodd" clip-rule="evenodd" d="M195.84 322.133C198.699 321.993 201.543 322.135 204.373 322.56C206.576 324.131 206.576 325.695 204.373 327.253C201.054 325.927 197.925 326.211 194.987 328.107C193.583 331.371 193.014 334.784 193.28 338.347C197.262 338.347 201.244 338.347 205.227 338.347C205.227 339.484 205.227 340.623 205.227 341.76C201.244 341.76 197.262 341.76 193.28 341.76C193.28 352.284 193.28 362.809 193.28 373.333C191.857 373.333 190.436 373.333 189.013 373.333C189.013 362.809 189.013 352.284 189.013 341.76C186.737 341.76 184.463 341.76 182.187 341.76C182.187 340.623 182.187 339.484 182.187 338.347C184.463 338.347 186.737 338.347 189.013 338.347C187.369 331.127 189.645 325.723 195.84 322.133Z" fill="#F6F9FB"/>
<path fill-rule="evenodd" clip-rule="evenodd" d="M171.947 324.693C177.497 324.384 178.919 326.518 176.213 331.093C171.337 331.436 169.915 329.302 171.947 324.693Z" fill="#E7EFF5"/>
<path fill-rule="evenodd" clip-rule="evenodd" d="M125.013 336.64C130.447 337.149 134.572 339.709 137.387 344.32C141.257 338.053 146.804 335.92 154.027 337.92C158.582 339.633 161.283 342.904 162.133 347.733C162.56 356.262 162.702 364.795 162.56 373.333C161.137 373.333 159.716 373.333 158.293 373.333C158.609 364.468 158.182 355.65 157.013 346.88C154.3 341.987 150.176 340.423 144.64 342.187C142.507 343.183 140.943 344.747 139.947 346.88C138.753 355.642 138.326 364.46 138.667 373.333C137.244 373.333 135.823 373.333 134.4 373.333C134.744 364.176 134.317 355.074 133.12 346.027C131.584 342.839 129.024 341.417 125.44 341.76C120.916 341.602 117.787 343.593 116.053 347.733C115.627 356.262 115.485 364.795 115.627 373.333C113.92 373.333 112.213 373.333 110.507 373.333C110.507 361.671 110.507 350.009 110.507 338.347C111.929 338.347 113.351 338.347 114.773 338.347C114.637 339.796 114.778 341.219 115.2 342.613C117.68 339.175 120.951 337.184 125.013 336.64Z" fill="#EFF4F8"/>
<path fill-rule="evenodd" clip-rule="evenodd" d="M219.733 337.493C236.714 336.413 244.251 344.378 242.347 361.387C237.285 373.787 228.609 377.343 216.32 372.053C207.974 364.033 206.409 354.789 211.627 344.32C213.992 341.519 216.695 339.243 219.733 337.493Z" fill="#EEF3F8"/>
<path fill-rule="evenodd" clip-rule="evenodd" d="M256.427 337.493C263.904 335.71 269.594 337.986 273.493 344.32C272.771 345.468 271.776 346.321 270.507 346.88C266.555 341.37 261.577 340.09 255.573 343.04C253.077 346.194 253.362 349.038 256.427 351.573C261.067 352.733 265.619 354.156 270.08 355.84C274.843 359.884 275.554 364.577 272.213 369.92C266.764 375.088 260.648 376.084 253.867 372.907C251.424 371.743 249.717 369.894 248.747 367.36C249.469 366.212 250.464 365.359 251.733 364.8C255.904 370.571 261.165 371.851 267.52 368.64C269.33 365.932 269.614 363.087 268.373 360.107C262.926 358.246 257.522 356.256 252.16 354.133C247.714 347.01 249.137 341.463 256.427 337.493Z" fill="#EDF3F8"/>
<path fill-rule="evenodd" clip-rule="evenodd" d="M302.507 369.067C302.265 368.393 301.838 367.824 301.227 367.36C300.8 373.896 300.658 380.438 300.8 386.987C299.662 386.987 298.524 386.987 297.387 386.987C297.387 370.773 297.387 354.56 297.387 338.347C298.524 338.347 299.662 338.347 300.8 338.347C300.7 340.04 301.269 341.461 302.507 342.613C311.287 334.65 319.677 335.219 327.68 344.32C331.662 352 331.662 359.68 327.68 367.36C322.779 373.809 316.379 375.943 308.48 373.76C306.12 372.59 304.129 371.026 302.507 369.067Z" fill="#F2F6FA"/>
<path fill-rule="evenodd" clip-rule="evenodd" d="M346.88 337.493C358.111 335.485 364.511 340.035 366.08 351.147C366.507 358.537 366.648 365.932 366.507 373.333C363.382 374.07 361.533 372.932 360.96 369.92C355.511 375.088 349.395 376.084 342.613 372.907C336.161 367.188 335.876 361.215 341.76 354.987C348.083 351.463 354.626 351.037 361.387 353.707C361.922 343.86 357.37 340.02 347.733 342.187C345.335 343.59 343.344 345.438 341.76 347.733C340.478 347.236 339.341 346.525 338.347 345.6C340.332 341.92 343.177 339.219 346.88 337.493Z" fill="#EAF0F6"/>
<path fill-rule="evenodd" clip-rule="evenodd" d="M171.947 338.347C173.653 338.347 175.36 338.347 177.067 338.347C177.067 350.009 177.067 361.671 177.067 373.333C175.36 373.333 173.653 373.333 171.947 373.333C171.947 361.671 171.947 350.009 171.947 338.347Z" fill="#E4EDF4"/>
<path fill-rule="evenodd" clip-rule="evenodd" d="M370.773 338.347C372.569 338.092 374.275 338.376 375.893 339.2C379.733 348.587 383.573 357.973 387.413 367.36C390.969 357.973 394.524 348.587 398.08 339.2C399.719 338.226 401.426 338.084 403.2 338.773C397.373 353.408 391.542 368.056 385.707 382.72C382.59 388.052 378.181 389.616 372.48 387.413C371.447 386.464 371.447 385.468 372.48 384.427C373.875 383.419 375.298 383.419 376.747 384.427C377.884 383.857 379.023 383.289 380.16 382.72C382.266 379.685 383.973 376.414 385.28 372.907C380.193 361.485 375.357 349.965 370.773 338.347Z" fill="#EDF2F7"/>
<path fill-rule="evenodd" clip-rule="evenodd" d="M221.44 341.76C232.148 340.38 237.838 345.073 238.507 355.84C236.797 368.64 229.971 372.623 218.027 367.787C212.331 361.05 211.62 353.797 215.893 346.027C217.57 344.277 219.419 342.855 221.44 341.76Z" fill="#05589B"/>
<path fill-rule="evenodd" clip-rule="evenodd" d="M309.333 341.76C322.041 340.96 327.588 346.933 325.973 359.68C323.803 368.478 318.257 371.749 309.333 369.493C306.063 368.497 303.929 366.364 302.933 363.093C299.549 354.133 301.682 347.023 309.333 341.76Z" fill="#05589B"/>
<path fill-rule="evenodd" clip-rule="evenodd" d="M347.733 356.267C352.125 355.994 356.391 356.563 360.533 357.973C361.912 362.793 360.49 366.633 356.267 369.493C351.301 371.738 346.893 371.026 343.04 367.36C340.863 362.045 342.428 358.347 347.733 356.267Z" fill="#04579B"/>
<path fill-rule="evenodd" clip-rule="evenodd" d="M297.387 338.347C297.387 354.56 297.387 370.773 297.387 386.987C298.524 386.987 299.663 386.987 300.8 386.987C300.658 380.438 300.8 373.896 301.227 367.36C301.839 367.824 302.265 368.393 302.507 369.067C301.66 375.166 301.376 381.424 301.653 387.84C299.947 387.84 298.24 387.84 296.533 387.84C296.252 371.194 296.536 354.696 297.387 338.347Z" fill="#A5C3DB"/>
</g>
<defs>
<clipPath id="clip0_1_2">
<rect width="512" height="512" fill="white"/>
</clipPath>
</defs>
</svg>
