<svg width="512" height="512" viewBox="0 0 512 512" fill="none" xmlns="http://www.w3.org/2000/svg">
<g clip-path="url(#clip0_4_74)">
<mask id="mask0_4_74" style="mask-type:luminance" maskUnits="userSpaceOnUse" x="0" y="0" width="512" height="512">
<path d="M512 0H0V512H512V0Z" fill="white"/>
</mask>
<g mask="url(#mask0_4_74)">
<path fill-rule="evenodd" clip-rule="evenodd" d="M-0.426758 -0.426636C170.24 -0.426636 340.907 -0.426636 511.573 -0.426636C511.573 170.24 511.573 340.907 511.573 511.573C340.907 511.573 170.24 511.573 -0.426758 511.573C-0.426758 340.907 -0.426758 170.24 -0.426758 -0.426636Z" fill="#05589B"/>
<path fill-rule="evenodd" clip-rule="evenodd" d="M151.418 208.43C151.367 207.974 151.087 207.693 150.576 207.59C149.736 231.693 149.456 255.804 149.736 279.92C145.77 293.251 136.798 298.998 122.821 297.163C114.551 294.499 109.085 289.031 106.421 280.762C105.86 236.465 105.86 192.171 106.421 147.874C113.223 131.647 124.578 127.301 140.484 134.837C157.119 151.472 173.8 168.154 190.527 184.881C206.391 169.297 221.951 153.456 237.206 137.36C249.455 128.161 260.809 129.141 271.269 140.304C272.42 142.563 273.541 144.807 274.633 147.033C275.194 191.609 275.194 236.185 274.633 280.762C268.737 295.53 258.224 300.438 243.093 295.48C235.664 291.402 231.598 285.094 230.898 276.556C230.617 253.848 230.337 231.139 230.057 208.43C220.612 218.437 210.66 227.829 200.199 236.606C191.872 239.952 184.021 239.112 176.65 234.083C168.069 225.642 159.659 217.092 151.418 208.43Z" fill="#FAFBFD"/>
<path fill-rule="evenodd" clip-rule="evenodd" d="M314.583 131.052C332.528 130.913 350.47 131.052 368.412 131.473C385.351 133.27 396.987 142.101 403.315 157.967C408.766 178.909 402.739 195.59 385.232 208.01C380.999 210.355 376.512 212.038 371.776 213.056C362.008 214.223 352.196 214.644 342.338 214.318C342.479 236.187 342.338 258.054 341.918 279.92C337.452 293.017 328.341 298.764 314.583 297.163C306.314 294.499 300.846 289.031 298.182 280.762C297.622 236.465 297.622 192.171 298.182 147.874C301.001 139.59 306.468 133.983 314.583 131.052Z" fill="#F6F9FB"/>
<path fill-rule="evenodd" clip-rule="evenodd" d="M316.266 135.258C333.931 135.117 351.593 135.258 369.253 135.679C383.288 137.662 393.242 145.091 399.11 157.967C404.71 176.712 399.803 191.991 384.392 203.805C379.197 206.938 373.589 208.901 367.57 209.692C345.704 210.113 323.837 210.253 301.968 210.113C301.968 202.823 301.968 195.535 301.968 188.245C310.103 188.385 318.233 188.245 326.359 187.824C339.531 185.005 343.596 177.296 338.554 164.696C337.069 162.195 334.967 160.373 332.246 159.228C322.217 158.019 312.124 157.598 301.968 157.967C301.037 146.626 305.803 139.057 316.266 135.258Z" fill="#02579B"/>
<path fill-rule="evenodd" clip-rule="evenodd" d="M144.689 148.715C144.967 164.001 144.686 179.14 143.849 194.132C134.626 185.33 125.515 176.36 116.513 167.219C107.324 154.441 109.706 144.488 123.663 137.36C133.629 135.892 140.637 139.677 144.689 148.715Z" fill="#0B599C"/>
<path fill-rule="evenodd" clip-rule="evenodd" d="M237.207 194.132C236.368 179.421 236.088 164.561 236.365 149.556C241.514 137.137 250.204 133.914 262.439 139.883C271.689 148.294 272.391 157.405 264.541 167.219C255.54 176.36 246.428 185.33 237.207 194.132Z" fill="#0A599C"/>
<path fill-rule="evenodd" clip-rule="evenodd" d="M151.418 152.92C163.455 164.398 175.229 176.172 186.742 188.245C182.27 193.14 177.643 197.905 172.865 202.543C170.699 205.257 169.437 208.341 169.08 211.794C168.518 213.757 167.959 215.72 167.398 217.682C161.181 212.309 155.575 206.421 150.576 200.02C150.299 184.173 150.579 168.474 151.418 152.92Z" fill="#0D599C"/>
<path fill-rule="evenodd" clip-rule="evenodd" d="M229.637 152.92C230.474 168.754 230.755 184.734 230.477 200.861C225.151 206.748 219.544 212.356 213.656 217.682C213.095 215.72 212.535 213.757 211.974 211.794C211.617 208.341 210.355 205.257 208.19 202.543C203.41 197.905 198.785 193.14 194.312 188.245C205.847 176.149 217.622 164.375 229.637 152.92Z" fill="#0C599C"/>
<path fill-rule="evenodd" clip-rule="evenodd" d="M144.69 148.715C145.667 164.271 145.807 179.971 145.11 195.815C144.507 195.357 144.086 194.796 143.849 194.132C144.687 179.14 144.968 164.001 144.69 148.715Z" fill="#3073AB"/>
<path fill-rule="evenodd" clip-rule="evenodd" d="M151.418 152.92C150.58 168.474 150.3 184.173 150.577 200.02C149.6 183.903 149.459 167.642 150.157 151.238C150.759 151.696 151.18 152.257 151.418 152.92Z" fill="#DAE6F1"/>
<path fill-rule="evenodd" clip-rule="evenodd" d="M230.477 200.861C230.755 184.734 230.474 168.754 229.637 152.92C229.874 152.257 230.295 151.696 230.898 151.238C231.595 167.923 231.455 184.463 230.477 200.861Z" fill="#AAC6DD"/>
<path fill-rule="evenodd" clip-rule="evenodd" d="M236.365 149.556C236.088 164.561 236.367 179.421 237.206 194.132C236.968 194.796 236.548 195.357 235.945 195.814C235.247 180.25 235.388 164.831 236.365 149.556Z" fill="#5B92BE"/>
<path fill-rule="evenodd" clip-rule="evenodd" d="M301.968 162.172C311.504 162.031 321.037 162.172 330.564 162.592C334.913 164.564 336.876 167.927 336.452 172.685C336.615 178.137 334.092 181.783 328.882 183.619C319.916 184.039 310.944 184.18 301.968 184.039C301.968 176.75 301.968 169.462 301.968 162.172Z" fill="#0E5A9D"/>
<path fill-rule="evenodd" clip-rule="evenodd" d="M111.888 168.9C111.048 204.362 110.767 239.967 111.047 275.716C109.927 239.968 109.927 204.083 111.047 168.06C111.558 168.164 111.837 168.444 111.888 168.9Z" fill="#D2E1ED"/>
<path fill-rule="evenodd" clip-rule="evenodd" d="M269.166 168.9C269.218 168.444 269.497 168.164 270.008 168.06C271.127 204.644 271.127 241.09 270.008 277.397C270.287 241.089 270.007 204.924 269.166 168.9Z" fill="#A1C1DA"/>
<path fill-rule="evenodd" clip-rule="evenodd" d="M324.676 168.059C331.506 168.034 333.187 170.977 329.723 176.891C323.844 178.577 321.46 176.475 322.574 170.583C323.161 169.581 323.861 168.74 324.676 168.059Z" fill="#F9FBFC"/>
<path fill-rule="evenodd" clip-rule="evenodd" d="M111.888 168.9C122.792 180.225 133.865 191.441 145.11 202.544C145.671 228.055 145.671 253.568 145.11 279.08C141.574 289.33 134.425 293.676 123.663 292.117C116.12 289.231 111.914 283.763 111.047 275.716C110.767 239.967 111.048 204.362 111.888 168.9Z" fill="#03579B"/>
<path fill-rule="evenodd" clip-rule="evenodd" d="M269.166 168.9C270.007 204.924 270.287 241.089 270.008 277.397C266.882 289.898 259.032 294.524 246.457 291.275C241.166 288.784 237.661 284.719 235.945 279.08C235.383 253.568 235.383 228.055 235.945 202.544C247.189 191.441 258.262 180.225 269.166 168.9Z" fill="#05589B"/>
<path fill-rule="evenodd" clip-rule="evenodd" d="M189.266 192.45C190.15 192.325 190.992 192.464 191.789 192.87C195.294 196.375 198.797 199.879 202.302 203.384C208.798 210.817 209.359 218.668 203.984 226.933C196.752 233.596 188.762 234.577 180.014 229.877C172.694 223.144 171.432 215.435 176.229 206.748C180.438 201.839 184.783 197.073 189.266 192.45Z" fill="#0D599C"/>
<path fill-rule="evenodd" clip-rule="evenodd" d="M151.418 208.43C150.856 232.26 150.297 256.091 149.736 279.92C149.456 255.804 149.736 231.693 150.577 207.59C151.087 207.693 151.367 207.974 151.418 208.43Z" fill="#D8E5F0"/>
<path fill-rule="evenodd" clip-rule="evenodd" d="M301.968 214.318C314.023 214.318 326.079 214.318 338.134 214.318C338.274 235.908 338.134 257.494 337.713 279.08C332.253 292.531 322.861 296.316 309.538 290.434C305.973 287.364 303.59 283.579 302.389 279.08C301.968 257.494 301.828 235.908 301.968 214.318Z" fill="#03579B"/>
<path fill-rule="evenodd" clip-rule="evenodd" d="M169.081 211.794C169.219 214.333 169.079 216.856 168.66 219.364C168.057 218.907 167.636 218.346 167.398 217.682C167.959 215.72 168.519 213.757 169.081 211.794Z" fill="#97B9D5"/>
<path fill-rule="evenodd" clip-rule="evenodd" d="M211.975 211.794C212.536 213.757 213.096 215.72 213.656 217.682C213.419 218.346 212.998 218.907 212.395 219.364C211.976 216.856 211.836 214.333 211.975 211.794Z" fill="#94B7D4"/>
<path fill-rule="evenodd" clip-rule="evenodd" d="M192.63 315.245C195.448 315.107 198.251 315.247 201.04 315.666C203.212 317.214 203.212 318.756 201.04 320.291C197.769 318.984 194.685 319.264 191.789 321.133C190.405 324.35 189.845 327.714 190.107 331.226C194.032 331.226 197.956 331.226 201.882 331.226C201.882 332.346 201.882 333.469 201.882 334.59C197.956 334.59 194.032 334.59 190.107 334.59C190.107 344.962 190.107 355.336 190.107 365.709C188.704 365.709 187.304 365.709 185.901 365.709C185.901 355.336 185.901 344.962 185.901 334.59C183.658 334.59 181.417 334.59 179.173 334.59C179.173 333.469 179.173 332.346 179.173 331.226C181.417 331.226 183.658 331.226 185.901 331.226C184.281 324.11 186.524 318.783 192.63 315.245Z" fill="#F6F9FB"/>
<path fill-rule="evenodd" clip-rule="evenodd" d="M169.08 317.768C174.55 317.463 175.952 319.567 173.285 324.076C168.479 324.414 167.077 322.311 169.08 317.768Z" fill="#E7EFF5"/>
<path fill-rule="evenodd" clip-rule="evenodd" d="M122.821 329.543C128.177 330.045 132.243 332.568 135.017 337.113C138.832 330.936 144.299 328.833 151.418 330.805C155.908 332.493 158.57 335.717 159.407 340.477C159.828 348.883 159.968 357.293 159.828 365.708C158.426 365.708 157.025 365.708 155.623 365.708C155.934 356.971 155.513 348.28 154.361 339.636C151.687 334.813 147.622 333.272 142.166 335.01C140.064 335.992 138.522 337.533 137.541 339.636C136.364 348.272 135.943 356.963 136.279 365.708C134.876 365.708 133.476 365.708 132.073 365.708C132.412 356.683 131.992 347.712 130.812 338.795C129.298 335.653 126.775 334.251 123.242 334.589C118.783 334.434 115.699 336.396 113.99 340.477C113.57 348.883 113.43 357.293 113.57 365.708C111.888 365.708 110.205 365.708 108.524 365.708C108.524 354.214 108.524 342.72 108.524 331.226C109.925 331.226 111.327 331.226 112.729 331.226C112.595 332.654 112.733 334.056 113.149 335.43C115.594 332.042 118.818 330.079 122.821 329.543Z" fill="#EFF4F8"/>
<path fill-rule="evenodd" clip-rule="evenodd" d="M216.179 330.384C232.916 329.319 240.344 337.17 238.468 353.934C233.479 366.156 224.927 369.661 212.815 364.447C204.589 356.542 203.047 347.431 208.19 337.113C210.521 334.352 213.185 332.109 216.179 330.384Z" fill="#EEF3F8"/>
<path fill-rule="evenodd" clip-rule="evenodd" d="M252.345 330.384C259.715 328.627 265.323 330.87 269.166 337.113C268.454 338.244 267.473 339.085 266.223 339.636C262.328 334.205 257.421 332.944 251.503 335.851C249.043 338.96 249.324 341.763 252.345 344.262C256.918 345.405 261.405 346.807 265.802 348.467C270.496 352.453 271.197 357.079 267.904 362.345C262.534 367.438 256.505 368.42 249.822 365.289C247.414 364.141 245.732 362.319 244.776 359.821C245.487 358.69 246.468 357.849 247.719 357.298C251.83 362.986 257.015 364.248 263.279 361.083C265.063 358.414 265.343 355.61 264.119 352.673C258.751 350.839 253.424 348.877 248.14 346.785C243.758 339.764 245.16 334.297 252.345 330.384Z" fill="#EDF3F8"/>
<path fill-rule="evenodd" clip-rule="evenodd" d="M297.763 361.504C297.525 360.839 297.104 360.279 296.502 359.821C296.081 366.263 295.941 372.711 296.081 379.166C294.959 379.166 293.837 379.166 292.717 379.166C292.717 363.185 292.717 347.205 292.717 331.226C293.837 331.226 294.959 331.226 296.081 331.226C295.982 332.894 296.543 334.295 297.763 335.43C306.417 327.582 314.686 328.143 322.574 337.113C326.499 344.682 326.499 352.252 322.574 359.821C317.744 366.178 311.436 368.281 303.65 366.129C301.324 364.976 299.362 363.435 297.763 361.504Z" fill="#F2F6FA"/>
<path fill-rule="evenodd" clip-rule="evenodd" d="M341.498 330.384C352.567 328.405 358.875 332.89 360.422 343.842C360.843 351.126 360.982 358.414 360.843 365.709C357.763 366.435 355.94 365.314 355.375 362.345C350.005 367.439 343.977 368.42 337.292 365.289C330.933 359.652 330.652 353.765 336.452 347.627C342.684 344.153 349.132 343.733 355.796 346.365C356.324 336.66 351.837 332.875 342.339 335.011C339.975 336.393 338.013 338.215 336.452 340.477C335.188 339.987 334.067 339.286 333.088 338.375C335.044 334.747 337.848 332.085 341.498 330.384Z" fill="#EAF0F6"/>
<path fill-rule="evenodd" clip-rule="evenodd" d="M169.081 331.226C170.762 331.226 172.444 331.226 174.127 331.226C174.127 342.72 174.127 354.214 174.127 365.708C172.444 365.708 170.762 365.708 169.081 365.708C169.081 354.214 169.081 342.72 169.081 331.226Z" fill="#E4EDF4"/>
<path fill-rule="evenodd" clip-rule="evenodd" d="M365.047 331.226C366.817 330.975 368.499 331.254 370.093 332.067C373.878 341.319 377.663 350.57 381.448 359.822C384.953 350.57 388.457 341.319 391.961 332.067C393.577 331.107 395.259 330.967 397.008 331.646C391.265 346.07 385.517 360.508 379.766 374.961C376.694 380.216 372.349 381.758 366.73 379.586C365.711 378.651 365.711 377.669 366.73 376.643C368.105 375.65 369.507 375.65 370.935 376.643C372.056 376.081 373.178 375.522 374.299 374.961C376.375 371.969 378.057 368.745 379.345 365.289C374.332 354.031 369.565 342.677 365.047 331.226Z" fill="#EDF2F7"/>
<path fill-rule="evenodd" clip-rule="evenodd" d="M217.862 334.59C228.416 333.229 234.024 337.855 234.684 348.467C232.998 361.083 226.271 365.009 214.498 360.242C208.884 353.602 208.183 346.453 212.395 338.795C214.048 337.07 215.87 335.669 217.862 334.59Z" fill="#05589B"/>
<path fill-rule="evenodd" clip-rule="evenodd" d="M304.491 334.59C317.016 333.801 322.483 339.688 320.891 352.252C318.753 360.923 313.286 364.147 304.491 361.924C301.268 360.942 299.164 358.84 298.183 355.616C294.847 346.785 296.95 339.777 304.491 334.59Z" fill="#05589B"/>
<path fill-rule="evenodd" clip-rule="evenodd" d="M342.338 348.888C346.667 348.619 350.872 349.18 354.954 350.569C356.313 355.32 354.912 359.105 350.75 361.924C345.855 364.137 341.51 363.435 337.713 359.821C335.567 354.583 337.11 350.938 342.338 348.888Z" fill="#04579B"/>
<path fill-rule="evenodd" clip-rule="evenodd" d="M292.716 331.226C292.716 347.205 292.716 363.185 292.716 379.166C293.837 379.166 294.96 379.166 296.08 379.166C295.94 372.711 296.08 366.263 296.501 359.821C297.104 360.279 297.524 360.839 297.763 361.504C296.928 367.515 296.648 373.683 296.921 380.007C295.24 380.007 293.557 380.007 291.875 380.007C291.598 363.6 291.878 347.339 292.716 331.226Z" fill="#A5C3DB"/>
</g>
</g>
<defs>
<clipPath id="clip0_4_74">
<rect width="512" height="512" fill="white"/>
</clipPath>
</defs>
</svg>
